<?xml version="1.0" encoding="UTF-8"?>
<svg xmlns="http://www.w3.org/2000/svg" width="900" height="240" viewBox="0 0 900 240" role="img" aria-label="WUGAMS HOLDING INC">
  <defs>
    <linearGradient id="goldH2" x1="0%" y1="0%" x2="100%" y2="100%">
      <stop offset="0%" stop-color="#9A671F"/>
      <stop offset="22%" stop-color="#F4CE79"/>
      <stop offset="48%" stop-color="#FFF0B1"/>
      <stop offset="72%" stop-color="#D99A36"/>
      <stop offset="100%" stop-color="#8E5E1D"/>
    </linearGradient>
    <linearGradient id="goldSoftH2" x1="0%" y1="0%" x2="100%" y2="0%">
      <stop offset="0%" stop-color="#C78A2D"/>
      <stop offset="50%" stop-color="#FFE6A0"/>
      <stop offset="100%" stop-color="#C78A2D"/>
    </linearGradient>
    <filter id="glowH" x="-20%" y="-20%" width="140%" height="140%">
      <feGaussianBlur stdDeviation="3" result="blur"/>
      <feColorMatrix in="blur" type="matrix" values="1 0 0 0 0.55  0 1 0 0 0.32  0 0 1 0 0.05  0 0 0 .22 0" result="glow"/>
      <feMerge><feMergeNode in="glow"/><feMergeNode in="SourceGraphic"/></feMerge>
    </filter>
  </defs>
  <g fill="none" stroke="url(#goldH2)" stroke-linecap="round" stroke-linejoin="round" filter="url(#glowH)">
    <g transform="translate(-380, -220) scale(0.58)">
      <path d="M438 264 C548 285 640 345 684 425 C704 462 708 510 708 574 L708 724 C638 662 552 620 454 600 L454 276 Z" stroke-width="22"/>
      <path d="M1162 264 C1052 285 960 345 916 425 C896 462 892 510 892 574 L892 724 C962 662 1048 620 1146 600 L1146 276 Z" stroke-width="22"/>
      <path d="M708 426 C704 520 705 623 708 724 L760 594 L800 730 L840 594 L892 724 C895 623 896 520 892 426" stroke-width="22"/>
      <path d="M454 600 C548 620 638 662 708 724" stroke="url(#goldSoftH2)" stroke-width="10" opacity=".95"/>
      <path d="M1146 600 C1052 620 962 662 892 724" stroke="url(#goldSoftH2)" stroke-width="10" opacity=".95"/>
    </g>
  </g>
  <g>
    <text x="260" y="102" fill="#FFF0C2" font-family="'Cormorant Garamond', Georgia, 'Times New Roman', serif" font-size="88" font-weight="600" letter-spacing="10">WUGAMS</text>
    <text x="260" y="146" fill="#F0D99C" font-family="Montserrat, Arial, Helvetica, sans-serif" font-size="26" font-weight="500" letter-spacing="11">HOLDING INC</text>
  </g>
</svg>